<svg width="21" height="20" viewBox="0 0 21 20" fill="none" xmlns="http://www.w3.org/2000/svg">
<path d="M4.66659 16.6667C4.41659 16.6667 4.24992 16.5834 4.08325 16.4167C3.74992 16.0834 3.74992 15.5834 4.08325 15.25L15.7499 3.58337C16.0833 3.25004 16.5833 3.25004 16.9166 3.58337C17.2499 3.91671 17.2499 4.41671 16.9166 4.75004L5.24992 16.4167C5.08325 16.5834 4.91659 16.6667 4.66659 16.6667Z" fill="#FF5C35"/>
<path d="M6.33333 9.16667C4.5 9.16667 3 7.66667 3 5.83333C3 4 4.5 2.5 6.33333 2.5C8.16667 2.5 9.66667 4 9.66667 5.83333C9.66667 7.66667 8.16667 9.16667 6.33333 9.16667ZM6.33333 4.16667C5.41667 4.16667 4.66667 4.91667 4.66667 5.83333C4.66667 6.75 5.41667 7.5 6.33333 7.5C7.25 7.5 8 6.75 8 5.83333C8 4.91667 7.25 4.16667 6.33333 4.16667Z" fill="#FF5C35"/>
<path d="M14.6666 17.5C12.8333 17.5 11.3333 16 11.3333 14.1667C11.3333 12.3334 12.8333 10.8334 14.6666 10.8334C16.4999 10.8334 17.9999 12.3334 17.9999 14.1667C17.9999 16 16.4999 17.5 14.6666 17.5ZM14.6666 12.5C13.7499 12.5 12.9999 13.25 12.9999 14.1667C12.9999 15.0834 13.7499 15.8334 14.6666 15.8334C15.5833 15.8334 16.3333 15.0834 16.3333 14.1667C16.3333 13.25 15.5833 12.5 14.6666 12.5Z" fill="#FF5C35"/>
</svg>
