<svg width="72" height="72" viewBox="0 0 72 72" fill="none" xmlns="http://www.w3.org/2000/svg">
<g clip-path="url(#clip0_206_25399)">
<path d="M46.5212 41.5006C46.4858 40.6641 46.2963 38.3361 46.2449 37.593C46.0093 34.2719 46.6452 31.9615 47.7771 30.477C48.9089 28.9925 51.7341 26.9076 54.1129 28.6879C55.2873 29.5684 55.7159 31.3522 54.1731 33.8034C52.6304 36.2547 53.0484 38.9578 53.5125 41.409C55.7283 54.7024 46.1138 61.5191 39.9587 62.632C31.4229 64.1746 19.008 60.3181 18.2694 45.0911L18.2924 45.4046L17.1552 29.3887C16.9923 27.0907 17.7203 24.6148 20.0158 24.3595C22.0811 24.1288 23.3069 26.6469 23.4698 28.945L24.1447 38.4418L23.5885 30.595L22.6905 17.9373C22.5222 15.5635 23.5956 12.9661 26.0577 12.7337C28.5746 12.4959 29.8695 15.0475 30.0377 17.4213L31.0969 32.3031L29.7331 13.0964C29.5648 10.7227 31.0119 8.08475 33.1003 7.8928C35.5747 7.6674 36.9121 10.2067 37.0803 12.5805L38.4442 31.7872L37.5391 18.9551C37.3708 16.5813 38.4513 13.9276 40.9063 13.7515C43.5171 13.5648 44.7181 16.0654 44.8863 18.4391L46.523 41.4988L46.5212 41.5006Z" fill="#FCDBDB"/>
<path d="M36.324 63.84C31.8462 63.84 27.5012 62.433 24.2049 59.8286C20.053 56.5497 17.6955 51.4711 17.3873 45.144L16.2731 29.4521C16.0358 26.101 17.467 23.759 19.9184 23.486C20.7562 23.3927 21.5586 23.6269 22.2441 24.164L21.8066 17.9989C21.6047 15.162 22.9721 12.1402 25.9726 11.8567C27.0354 11.7563 28.0238 12.0522 28.8332 12.7143C28.8386 10.1134 30.4664 7.2483 33.017 7.01409C34.0904 6.91548 35.0894 7.23069 35.9095 7.92098C37.0591 8.89303 37.826 10.61 37.9624 12.5153L38.0846 14.2375C38.7648 13.4715 39.6823 12.9538 40.8407 12.871C41.9637 12.79 42.9893 13.1193 43.8041 13.8202C44.9147 14.7781 45.6303 16.4369 45.7684 18.374L46.6346 30.5844C46.7692 30.359 46.9162 30.146 47.0721 29.9417C48.5051 28.0645 51.828 25.8721 54.6479 27.9817C56.0383 29.0225 56.8425 31.2219 54.9259 34.2683C53.6028 36.3709 53.8986 38.6707 54.3857 41.2452C54.3857 41.2523 54.3875 41.2576 54.3892 41.2646C55.6787 49.0022 53.02 54.1724 50.5633 57.1466C47.3661 61.0154 43.0726 62.9648 40.1216 63.4984C38.8605 63.7255 37.5887 63.8382 36.3275 63.8382L36.324 63.84ZM19.178 45.4504C19.5358 51.1471 21.5976 55.5195 25.3066 58.4497C29.8163 62.0121 35.7519 62.4982 39.801 61.7674C42.4437 61.2901 46.298 59.5327 49.1905 56.0319C51.4153 53.3394 53.8171 48.6447 52.6392 41.564C52.1043 38.7324 51.7642 35.9729 53.4204 33.3386C54.5079 31.6093 54.5681 30.1336 53.578 29.394C51.5711 27.8919 49.164 30.1143 48.4803 31.0123C47.3927 32.4387 46.9233 34.6927 47.1252 37.5331C47.1394 37.7357 47.1642 38.0579 47.1925 38.4365C47.2705 39.4526 47.3768 40.8455 47.4033 41.4671C47.4228 41.9478 47.0508 42.3564 46.5673 42.3828C46.0837 42.4092 45.6692 42.0465 45.6338 41.5657L43.9972 18.5061C43.8944 17.0533 43.3861 15.803 42.6386 15.1585C42.1745 14.7588 41.6272 14.5862 40.963 14.6337C39.1208 14.7658 38.2759 16.9282 38.4159 18.897L39.321 31.7308C39.3546 32.2151 38.988 32.6359 38.4991 32.6712C38.012 32.7046 37.5887 32.3401 37.5532 31.8541V31.847L36.1894 12.6474C36.0884 11.2263 35.5393 9.93199 34.7564 9.26987C34.2959 8.8807 33.7787 8.71869 33.1729 8.77328C31.708 8.90711 30.4628 10.9798 30.6081 13.0383L31.972 32.245C32.0056 32.7293 31.639 33.1501 31.1501 33.1854C30.663 33.2188 30.2379 32.8543 30.2042 32.37L29.145 17.4882C29.0423 16.0495 28.4985 14.7535 27.7262 14.1019C27.2674 13.7163 26.7467 13.5578 26.1321 13.6159C24.0402 13.8131 23.4503 16.2749 23.5655 17.8809L25.0215 38.3872C25.0551 38.8715 24.6885 39.2941 24.1996 39.3276C23.7107 39.361 23.2874 38.9965 23.2537 38.5105L22.5789 29.0031C22.4744 27.5644 21.9129 26.1909 21.1778 25.5833C20.8466 25.3086 20.4958 25.1959 20.1062 25.2399C18.3721 25.4336 17.9045 27.5644 18.0302 29.3324L19.1444 45.0313C19.1444 45.0313 19.1444 45.033 19.1444 45.0348L19.1674 45.3482C19.1692 45.3835 19.1709 45.4187 19.1674 45.4539L19.178 45.4504Z" fill="black"/>
<path d="M46.4716 41.5006C46.4362 40.6641 46.2467 38.3361 46.1953 37.593C45.9597 34.2719 46.5956 31.9615 47.7275 30.477C48.8593 28.9925 51.6845 26.9076 54.0633 28.6879C55.2377 29.5684 55.6663 31.3522 54.1236 33.8035C52.5808 36.2547 52.9988 38.9578 53.4629 41.409C55.6787 54.7024 46.0642 61.5191 39.9091 62.632" fill="#FCDBDB"/>
<path d="M40.0685 63.5001L39.7514 61.7674C42.3941 61.2901 46.2484 59.5327 49.1409 56.0319C51.3657 53.3395 53.7675 48.6448 52.5896 41.564C52.0547 38.7324 51.7146 35.9729 53.3708 33.3386C54.4583 31.6093 54.5185 30.1336 53.5284 29.394C51.5215 27.8919 49.1144 30.1143 48.4307 31.0123C47.3431 32.4387 46.8737 34.6927 47.0756 37.5331C47.0898 37.7357 47.1146 38.0561 47.1429 38.4312C47.2209 39.4491 47.3272 40.8437 47.3537 41.4654L45.5842 41.5376C45.5594 40.9459 45.4531 39.5688 45.377 38.5633C45.3486 38.1829 45.3238 37.8589 45.3079 37.6547C45.0723 34.3353 45.648 31.7414 47.019 29.9452C48.4519 28.068 51.7748 25.8756 54.5947 27.9853C55.9852 29.026 56.7893 31.2254 54.8728 34.2719C53.5497 36.3744 53.8455 38.6742 54.3326 41.2488C54.3326 41.2558 54.3343 41.2611 54.3361 41.2681C55.6256 49.0057 52.9669 54.1759 50.5101 57.1502C47.313 61.019 43.0194 62.9683 40.0685 63.5019V63.5001Z" fill="black"/>
<path d="M49.2164 14.917L18.8445 20.0512C14.2944 20.8204 11.233 25.111 12.0067 29.6345C12.7804 34.1581 17.0961 37.2016 21.6462 36.4325L52.0181 31.2983C56.5682 30.5291 59.6295 26.2385 58.8559 21.715C58.0822 17.1914 53.7664 14.1479 49.2164 14.917Z" fill="#FFD400"/>
<path d="M20.2407 37.431C15.8196 37.431 11.8998 34.2578 11.1328 29.7814C10.7183 27.3619 11.2781 24.9265 12.7057 22.9243C14.1334 20.9221 16.2607 19.5926 18.6944 19.1823L49.0665 14.0491C51.5002 13.637 53.9499 14.1935 55.9638 15.6128C57.9778 17.0321 59.3151 19.147 59.7278 21.5666C60.1423 23.9861 59.5826 26.4215 58.1549 28.4237C56.7273 30.4259 54.6 31.7555 52.1662 32.1658L21.7941 37.2989C21.2716 37.387 20.7526 37.4292 20.2407 37.4292V37.431ZM50.6323 15.6797C50.2107 15.6797 49.7874 15.7149 49.3641 15.7871L18.992 20.9186C17.0241 21.2514 15.3042 22.3256 14.1511 23.9439C12.9962 25.5622 12.5445 27.5309 12.8793 29.4873C13.4975 33.1061 16.6663 35.6701 20.2407 35.6718C20.6552 35.6718 21.075 35.6366 21.4966 35.5662L51.8686 30.433C53.8365 30.1002 55.5564 29.026 56.7096 27.4077C57.8644 25.7894 58.3161 23.8206 57.9813 21.8642C57.6466 19.9078 56.5661 18.1979 54.9383 17.0515C53.6612 16.1499 52.1662 15.6797 50.6305 15.6797H50.6323Z" fill="black"/>
<path d="M46.4716 41.5006C46.4362 40.6641 46.2466 38.3361 46.1953 37.593C45.9597 34.2719 46.5956 31.9615 47.7274 30.477C48.8593 28.9925 51.6844 26.9076 54.0633 28.6879C55.2376 29.5684 55.6663 31.3522 54.1235 33.8035C52.5807 36.2547 52.9987 38.9578 53.4628 41.409C55.6787 54.7024 46.0642 61.5191 39.909 62.632" fill="#FCDBDB"/>
<path d="M39.909 63.5142C39.4892 63.5142 39.1173 63.2166 39.0393 62.7905C38.9525 62.3115 39.2714 61.8537 39.7514 61.7674C42.3941 61.2901 46.2484 59.5327 49.1409 56.0319C51.3656 53.3395 53.7675 48.6448 52.5896 41.564C52.0547 38.7324 51.7146 35.9729 53.3707 33.3386C54.4583 31.6093 54.5185 30.1336 53.5284 29.394C51.5215 27.8919 49.1144 30.1143 48.4306 31.0123C47.3431 32.4387 46.8737 34.6927 47.0756 37.5331C47.0898 37.7357 47.1146 38.0561 47.1429 38.4312C47.2209 39.4491 47.3271 40.8437 47.3537 41.4654C47.3732 41.9514 46.9941 42.3617 46.5053 42.381C46.0182 42.4022 45.6037 42.0236 45.5842 41.5376C45.5594 40.9459 45.4531 39.5688 45.377 38.5633C45.3486 38.1829 45.3238 37.8589 45.3079 37.6547C45.0723 34.3353 45.648 31.7414 47.0189 29.9452C48.4519 28.068 51.7748 25.8756 54.5947 27.9853C55.9851 29.026 56.7893 31.2254 54.8728 34.2719C53.5496 36.3744 53.8454 38.6742 54.3325 41.2488C54.3325 41.2558 54.3343 41.2611 54.3361 41.2681C55.6256 49.0057 52.9669 54.1759 50.5101 57.1502C47.313 61.019 43.0194 62.9683 40.0684 63.5019C40.0153 63.5107 39.9622 63.516 39.909 63.516V63.5142Z" fill="black"/>
<path d="M25.4554 32.6007L23.2802 33.1871C22.926 31.4561 22.4814 29.7779 21.9429 28.1561C21.4062 26.5342 20.7207 24.6923 19.8865 22.6284L22.4973 21.6617C23.677 25.0797 24.6618 28.7249 25.4536 32.6007H25.4554Z" fill="black"/>
<path d="M28.1459 31.1585C27.5366 30.956 27.0159 30.6161 26.5855 30.1424C26.155 29.6687 25.8734 29.1087 25.7423 28.4625C25.6095 27.8162 25.6502 27.1928 25.8592 26.5888C26.07 25.9866 26.4154 25.4724 26.8972 25.048C27.379 24.6236 27.9493 24.3454 28.6083 24.2115C29.2672 24.0777 29.9013 24.1129 30.5124 24.3172C31.1217 24.5215 31.6424 24.8596 32.0729 25.3333C32.5033 25.807 32.7849 26.3669 32.916 27.0132C33.0488 27.6595 33.0081 28.2829 32.7991 28.8869C32.5883 29.4891 32.2429 30.0033 31.7611 30.4277C31.2793 30.8521 30.709 31.1303 30.0501 31.2624C29.3912 31.3962 28.757 31.361 28.1459 31.1567V31.1585ZM30.3583 28.3868C30.5389 28.1209 30.5956 27.825 30.5301 27.4975C30.4628 27.1699 30.2945 26.9181 30.0235 26.7438C29.7525 26.5695 29.4425 26.5166 29.0954 26.5871C28.757 26.6557 28.4967 26.823 28.316 27.0889C28.1353 27.3548 28.0786 27.6507 28.1442 27.9782C28.2115 28.3058 28.3798 28.5576 28.6508 28.7319C28.9218 28.9062 29.2264 28.9591 29.5665 28.8904C29.9155 28.82 30.1794 28.6527 30.36 28.3868H30.3583Z" fill="black"/>
<path d="M36.2495 29.3799C35.6384 29.1774 35.1194 28.8376 34.689 28.3639C34.2586 27.8902 33.977 27.3302 33.8459 26.6839C33.7131 26.0376 33.752 25.4143 33.9628 24.8103C34.1736 24.208 34.519 23.6938 35.0008 23.2694C35.4826 22.845 36.0529 22.5668 36.7118 22.433C37.3707 22.2991 38.0049 22.3344 38.6159 22.5386C39.2253 22.7429 39.746 23.081 40.1764 23.5547C40.6069 24.0284 40.8885 24.5884 41.0196 25.2347C41.1524 25.8809 41.1117 26.5043 40.9027 27.1083C40.6919 27.7123 40.3465 28.2247 39.8647 28.6491C39.3829 29.0735 38.8126 29.3518 38.1536 29.4838C37.4947 29.6177 36.8588 29.5824 36.2495 29.3782V29.3799ZM38.4618 26.6082C38.6425 26.3423 38.6992 26.0465 38.6319 25.7189C38.5646 25.3914 38.3963 25.1396 38.1253 24.9652C37.8543 24.7909 37.5443 24.7381 37.1972 24.8085C36.8571 24.8772 36.5985 25.0445 36.4178 25.3104C36.2371 25.5763 36.1787 25.8721 36.246 26.1997C36.3133 26.5272 36.4816 26.779 36.7526 26.9533C37.0236 27.1277 37.3282 27.1805 37.6683 27.1118C38.0173 27.0414 38.2812 26.8741 38.4618 26.6082Z" fill="black"/>
<path d="M44.3 27.8056C43.6889 27.6031 43.1699 27.2633 42.7395 26.7896C42.3091 26.3159 42.0274 25.7559 41.8964 25.1096C41.7635 24.4634 41.8043 23.84 42.0133 23.236C42.2241 22.6337 42.5695 22.1195 43.0512 21.6951C43.533 21.2707 44.1034 20.9925 44.7623 20.8587C45.4212 20.7249 46.0553 20.7601 46.6664 20.9643C47.2757 21.1686 47.7965 21.5067 48.2269 21.9804C48.6573 22.4541 48.939 23.0141 49.07 23.6604C49.2029 24.3066 49.1622 24.93 48.9531 25.534C48.7424 26.1363 48.397 26.6505 47.9152 27.0748C47.4334 27.4992 46.863 27.7775 46.2041 27.9095C45.5452 28.0434 44.9111 28.0081 44.3 27.8039V27.8056ZM46.5123 25.0339C46.693 24.768 46.7497 24.4722 46.6824 24.1446C46.6151 23.8171 46.4468 23.5653 46.1758 23.3909C45.9048 23.2166 45.5948 23.1638 45.2476 23.2342C44.9093 23.3029 44.6489 23.4702 44.4683 23.7361C44.2876 24.002 44.2309 24.2978 44.2965 24.6254C44.3638 24.9529 44.532 25.2047 44.803 25.379C45.074 25.5534 45.3787 25.6062 45.7188 25.5375C46.0677 25.4671 46.3317 25.2998 46.5123 25.0339Z" fill="black"/>
<path d="M35.4684 34.9164L39.3103 41.1801L46.6788 41.5833L41.8751 47.1515L43.7651 54.2446L36.9527 51.4218L30.7533 55.4015L31.3484 48.0883L25.6254 43.457L32.8044 41.7577L35.4684 34.9164Z" fill="#FFD400"/>
<path d="M30.7533 56.282C30.5957 56.282 30.438 56.2397 30.2981 56.157C30.0094 55.9844 29.8429 55.6639 29.8694 55.3311L30.4256 48.4792L25.064 44.1385C24.8018 43.9272 24.6849 43.5855 24.7593 43.2598C24.8337 42.9322 25.0905 42.6769 25.4182 42.5994L32.1437 41.0093L34.6395 34.5994C34.7617 34.2877 35.0504 34.0694 35.387 34.0394C35.7235 34.0095 36.0459 34.1715 36.2212 34.4585L39.8222 40.326L46.7249 40.7046C47.0614 40.7222 47.359 40.93 47.4901 41.2382C47.6229 41.5464 47.568 41.9021 47.3484 42.1574L42.8476 47.3751L44.6189 54.0192C44.7056 54.3432 44.5994 54.6883 44.3443 54.9085C44.091 55.1286 43.7332 55.1867 43.4215 55.0581L37.0396 52.415L31.2315 56.1429C31.0863 56.2362 30.918 56.2838 30.7515 56.2838L30.7533 56.282ZM27.5756 43.9008L31.9064 47.4068C32.1331 47.5899 32.2536 47.8717 32.2305 48.1605L31.7806 53.6952L36.4727 50.6839C36.7172 50.5272 37.0254 50.499 37.2946 50.6117L42.4508 52.7478L41.0196 47.3804C40.9452 47.1004 41.0143 46.801 41.2038 46.5809L44.8403 42.367L39.2643 42.0606C38.9738 42.0447 38.7081 41.888 38.5575 41.6397L35.6491 36.8992L33.6334 42.0782C33.5289 42.3476 33.2951 42.5501 33.0117 42.617L27.5774 43.9025L27.5756 43.9008Z" fill="black"/>
</g>
<defs>
<clipPath id="clip0_206_25399">
<rect width="48.8625" height="56.84" fill="white" transform="translate(11 7)"/>
</clipPath>
</defs>
</svg>
