<?xml version="1.0" encoding="UTF-8"?>
<svg id="Layer_1" data-name="Layer 1" xmlns="http://www.w3.org/2000/svg" viewBox="0 0 100 100">
  <defs>
    <style>
      .cls-1 {
        fill: #ff5c35;
      }
    </style>
  </defs>
  <g>
    <path class="cls-1" d="M78.86,14.27h-14.31c0,7.97-6.46,14.43-14.43,14.43s-14.43-6.46-14.43-14.43h-14.56c-5.31,0-9.62,4.31-9.62,9.62v19.24h14.56v48.11h48.11V43.13h14.31V23.89c0-5.31-4.31-9.62-9.62-9.62Z"/>
    <path class="cls-1" d="M78.99,96.05H21.26V47.95H6.7V23.89c0-7.96,6.47-14.43,14.43-14.43h19.37v4.81c0,5.3,4.32,9.62,9.62,9.62s9.62-4.32,9.62-9.62v-4.81h19.12c7.96,0,14.43,6.47,14.43,14.43v24.05h-14.31v48.11Zm-48.11-9.62h38.49V38.32h14.31v-14.43c0-2.65-2.16-4.81-4.81-4.81h-10.1c-2.14,8.29-9.68,14.43-18.63,14.43s-16.49-6.14-18.63-14.43h-10.36c-2.65,0-4.81,2.16-4.81,4.81v14.43h14.56v48.11Z"/>
  </g>
  <path d="M68.74,9.46h-9.01v4.47c0,5.12-3.86,9.6-8.97,9.94-5.6,.37-10.28-4.08-10.28-9.6v-4.81h-9.01v6.21c0,3.58,1.02,7.14,3.15,10.02,3.51,4.74,9.14,7.82,15.48,7.82s11.97-3.08,15.48-7.82c2.13-2.88,3.15-6.44,3.15-10.02v-6.21Z"/>
  <rect x="6.7" y="38.32" width="14.56" height="9.62"/>
  <rect x="78.74" y="38.32" width="14.56" height="9.62"/>
</svg>