<?xml version="1.0" encoding="UTF-8"?>
<svg id="Layer_1" data-name="Layer 1" xmlns="http://www.w3.org/2000/svg" viewBox="0 0 100 100">
  <defs>
    <style>
      .cls-1 {
        fill: #ff5b29;
      }
    </style>
  </defs>
  <path d="M50.98,96.05H16.52C7.47,96.05,.1,87.89,.1,77.84v-20.01c0-7.82,2.65-15.21,7.46-20.8,3.07-3.57,4.84-8.58,4.84-13.73V9.22h29.3v14.08c0,5.15,1.76,10.15,4.84,13.73,4.81,5.59,7.46,12.98,7.46,20.8h-10.85c0-5.15-1.76-10.15-4.84-13.73-4.81-5.6-7.46-12.98-7.46-20.8v-3.23h-7.59v3.23c0,7.82-2.65,15.21-7.46,20.8-3.07,3.57-4.83,8.58-4.83,13.73v20.01c0,3.99,2.55,7.35,5.56,7.35H50.98v10.85Z"/>
  <g>
    <path class="cls-1" d="M38.92,55.56h50.5v32.97c0,1.16-.94,2.09-2.09,2.09H41.01c-1.16,0-2.09-.94-2.09-2.09V55.56h0Z"/>
    <path class="cls-1" d="M78.06,96.05h-27.78c-9.26,0-16.78-7.53-16.78-16.79v-29.13h61.35v29.13c0,9.26-7.53,16.79-16.78,16.79ZM44.35,60.99v18.28c0,3.27,2.66,5.93,5.93,5.93h27.78c3.27,0,5.93-2.66,5.93-5.93v-18.28H44.35Z"/>
  </g>
  <path d="M94.47,60.99H33.87c-3,0-5.43-2.43-5.43-5.43s2.43-5.43,5.43-5.43h60.6c3,0,5.43,2.43,5.43,5.43s-2.43,5.43-5.43,5.43Z"/>
  <path d="M64.17,60.99c-3,0-5.43-2.43-5.43-5.43v-11.69c0-3,2.43-5.43,5.43-5.43s5.43,2.43,5.43,5.43v11.69c0,3-2.43,5.43-5.43,5.43Z"/>
  <path class="cls-1" d="M43.52,20.07H10.58c-3,0-5.43-2.43-5.43-5.43s2.43-5.43,5.43-5.43H43.52c3,0,5.43,2.43,5.43,5.43s-2.43,5.43-5.43,5.43Z"/>
</svg>