<?xml version="1.0" encoding="UTF-8"?>
<svg id="Layer_1" data-name="Layer 1" xmlns="http://www.w3.org/2000/svg" viewBox="0 0 100 100">
  <defs>
    <style>
      .cls-1 {
        fill: #ff5b29;
      }
    </style>
  </defs>
  <path d="M64.25,40.51c-2.63,0-4.75-2.12-4.75-4.75V11.99c0-2.63,2.12-4.75,4.75-4.75s4.75,2.12,4.75,4.75v23.78c0,2.63-2.12,4.75-4.75,4.75Z"/>
  <path d="M35.75,40.51c-2.63,0-4.75-2.12-4.75-4.75V11.99c0-2.63,2.12-4.75,4.75-4.75s4.75,2.12,4.75,4.75v23.78c0,2.63-2.12,4.75-4.75,4.75Z"/>
  <path d="M50,92.76c-2.63,0-4.75-2.12-4.75-4.75v-14.25c0-2.63,2.12-4.75,4.75-4.75s4.75,2.12,4.75,4.75v14.25c0,2.63-2.12,4.75-4.75,4.75Z"/>
  <path class="cls-1" d="M83.25,31.01H16.75c-2.63,0-4.75,2.12-4.75,4.75s2.12,4.75,4.75,4.75h4.75v9.5c0,15.71,12.78,28.5,28.5,28.5s28.5-12.78,28.5-28.5v-9.5h4.75c2.63,0,4.75-2.12,4.75-4.75s-2.12-4.75-4.75-4.75Z"/>
</svg>