<?xml version="1.0" encoding="UTF-8"?>
<svg id="Layer_1" data-name="Layer 1" xmlns="http://www.w3.org/2000/svg" viewBox="0 0 110 110">
  <defs>
    <style>
      .cls-1 {
        fill: #ff6c3d;
      }
    </style>
  </defs>
  <path class="cls-1" d="M55,73.22c-10.11,0-18.33-8.22-18.33-18.33s8.22-18.33,18.33-18.33c3.37,0,6.11,2.73,6.11,6.11s-2.74,6.11-6.11,6.11-6.11,2.74-6.11,6.11,2.74,6.11,6.11,6.11,6.11-2.74,6.11-6.11,2.74-6.11,6.11-6.11,6.11,2.73,6.11,6.11c0,10.11-8.22,18.33-18.33,18.33Z"/>
  <path class="cls-1" d="M55,91.55c-20.22,0-36.67-16.45-36.67-36.67S34.78,18.22,55,18.22c3.37,0,6.11,2.73,6.11,6.11s-2.74,6.11-6.11,6.11c-13.48,0-24.44,10.96-24.44,24.44s10.97,24.44,24.44,24.44,24.44-10.96,24.44-24.44c0-3.38,2.74-6.11,6.11-6.11s6.11,2.73,6.11,6.11c0,20.22-16.45,36.67-36.67,36.67Z"/>
  <path class="cls-1" d="M55,109.89C24.67,109.89,0,85.21,0,54.89S24.67-.11,55-.11c3.37,0,6.11,2.73,6.11,6.11s-2.74,6.11-6.11,6.11C31.41,12.11,12.22,31.3,12.22,54.89s19.19,42.78,42.78,42.78,42.78-19.19,42.78-42.78c0-3.38,2.74-6.11,6.11-6.11s6.11,2.73,6.11,6.11c0,30.33-24.67,55-55,55Z"/>
  <path d="M55,61c-1.56,0-3.13-.6-4.32-1.79-2.39-2.39-2.39-6.25,0-8.64l30.56-30.56c2.39-2.39,6.25-2.39,8.64,0,2.39,2.39,2.39,6.25,0,8.64l-30.56,30.56c-1.19,1.19-2.76,1.79-4.32,1.79Z"/>
  <polygon points="70.37 19.7 70.37 39.51 90.19 39.51 110 19.7 90.19 19.7 90.19 -.12 70.37 19.7"/>
</svg>