<?xml version="1.0" encoding="UTF-8"?>
<svg id="Layer_1" data-name="Layer 1" xmlns="http://www.w3.org/2000/svg" viewBox="0 0 100 100">
  <defs>
    <style>
      .cls-1 {
        fill: #ff5c35;
      }
    </style>
  </defs>
  <path d="M93.3,96.05h-28.86c-2.66,0-4.81-2.15-4.81-4.81s2.15-4.81,4.81-4.81h19.24v-19.24c0-2.66,2.15-4.81,4.81-4.81s4.81,2.15,4.81,4.81v28.86Z"/>
  <path d="M25,91.24H11.51v-13.48c0-4.47,1.74-8.67,4.9-11.83l7.85-7.85,20.05,20.77-7.5,7.49c-3.15,3.16-7.35,4.9-11.82,4.9Zm-3.86-9.62h3.86c1.9,0,3.68-.74,5.02-2.08l.81-.82-6.68-6.92-.93,.93c-1.34,1.34-2.08,3.12-2.08,5.02v3.86Z"/>
  <g>
    <path class="cls-1" d="M24.21,64.94L67.25,21.9c3.76-3.76,9.85-3.76,13.61,0h0c3.76,3.76,3.76,9.85,0,13.61l-43.28,43.28-13.37-13.84Z"/>
    <path class="cls-1" d="M37.51,85.65l-20.05-20.77L63.85,18.5c5.45-5.45,14.97-5.45,20.41,0,2.72,2.72,4.22,6.35,4.22,10.2s-1.5,7.48-4.23,10.2l-46.74,46.74Zm-6.56-20.65l6.68,6.92,39.82-39.82c.91-.91,1.41-2.12,1.41-3.4s-.5-2.49-1.41-3.4c-1.81-1.83-4.97-1.82-6.8,0L30.95,65Z"/>
  </g>
  <path d="M11.51,43.13c-2.66,0-4.81-2.15-4.81-4.81V9.46h28.86c2.66,0,4.81,2.15,4.81,4.81s-2.15,4.81-4.81,4.81H16.32v19.24c0,2.66-2.15,4.81-4.81,4.81Z"/>
</svg>