<?xml version="1.0" encoding="UTF-8"?>
<svg id="Layer_1" data-name="Layer 1" xmlns="http://www.w3.org/2000/svg" viewBox="0 0 100 100">
  <defs>
    <style>
      .cls-1 {
        fill: #ff5c35;
      }
    </style>
  </defs>
  <g>
    <polyline class="cls-1" points="69.68 47.94 69.68 28.7 79.3 33.51 79.3 47.94"/>
    <polygon class="cls-1" points="84.11 47.95 64.87 47.95 64.87 20.92 84.11 30.54 84.11 47.95"/>
  </g>
  <g>
    <path class="cls-1" d="M50.44,14.27H11.95l8.28,49.69c.77,4.64,4.79,8.04,9.49,8.04h2.94c4.7,0,8.72-3.4,9.49-8.04L50.44,14.27Z"/>
    <path class="cls-1" d="M32.66,76.81h-2.94c-7.08,0-13.07-5.07-14.23-12.06L6.27,9.46H56.11l-9.22,55.29c-1.16,6.99-7.15,12.06-14.23,12.06ZM17.63,19.08l7.35,44.09c.39,2.33,2.39,4.02,4.74,4.02h2.94c2.36,0,4.36-1.69,4.74-4.02l7.35-44.09H17.63Z"/>
  </g>
  <path d="M45.62,95.62H16.76v-14c0-7.96,6.47-14.43,14.43-14.43s14.43,6.47,14.43,14.43v14Zm-19.24-9.62h9.62v-4.37c0-2.65-2.16-4.81-4.81-4.81s-4.81,2.16-4.81,4.81v4.37Z"/>
  <path d="M88.92,72h-28.86v-28.86h28.86v28.86Zm-19.24-9.62h9.62v-9.62h-9.62v9.62Z"/>
  <g>
    <path class="cls-1" d="M61.48,67.19h26.02c.79,0,1.42,.64,1.42,1.42v22.63h-28.86v-22.63c0-.79,.64-1.42,1.42-1.42Z" transform="translate(148.98 158.43) rotate(180)"/>
    <path class="cls-1" d="M82.08,96.05h-15.17c-6.43,0-11.66-5.23-11.66-11.66v-22.01h38.49v22.01c0,6.43-5.23,11.66-11.66,11.66Zm-17.21-24.05v12.39c0,1.12,.91,2.04,2.03,2.04h15.17c1.12,0,2.03-.92,2.03-2.04v-12.39h-19.24Z"/>
  </g>
</svg>