<?xml version="1.0" encoding="UTF-8"?>
<svg id="Layer_1" data-name="Layer 1" xmlns="http://www.w3.org/2000/svg" viewBox="0 0 100 100">
  <defs>
    <style>
      .cls-1 {
        fill: #ff5c35;
      }
    </style>
  </defs>
  <g>
    <path class="cls-1" d="M22.97,13.96h0c4.98,0,9.01,4.03,9.01,9.01v.77c0,2.39-.95,4.68-2.64,6.37l-7.42,7.42c-5.1,5.1-7.96,12.01-7.96,19.22h0c0,7.21,2.86,14.13,7.96,19.22l10.06,10.06h13.51s9.01,0,9.01,0h13.51l10.06-10.06c5.1-5.1,7.96-12.01,7.96-19.22h0c0-7.21-2.86-14.13-7.96-19.22l-7.42-7.42c-1.69-1.69-2.64-3.98-2.64-6.37v-.77c0-4.98,4.03-9.01,9.01-9.01h0"/>
    <path class="cls-1" d="M69.88,90.54H30.12l-11.38-11.38c-5.99-5.99-9.28-13.94-9.28-22.41s3.29-16.42,9.28-22.41l7.42-7.42c.85-.85,1.32-1.98,1.32-3.19v-.77c0-2.49-2.02-4.5-4.5-4.5V9.46c7.45,0,13.51,6.06,13.51,13.51v.77c0,3.61-1.41,7.01-3.96,9.56l-7.42,7.42c-4.28,4.28-6.64,9.98-6.64,16.04s2.36,11.75,6.64,16.04l8.74,8.74h32.31l8.74-8.74c4.28-4.28,6.64-9.98,6.64-16.04s-2.36-11.75-6.64-16.04l-7.42-7.42c-2.55-2.55-3.96-5.95-3.96-9.56v-.77c0-7.45,6.06-13.51,13.51-13.51v9.01c-2.49,0-4.5,2.02-4.5,4.5v.77c0,1.21,.47,2.34,1.32,3.19l7.42,7.42c5.99,5.99,9.28,13.94,9.28,22.41s-3.29,16.42-9.28,22.41l-11.38,11.38Z"/>
  </g>
  <path d="M54.76,51.87h7.01c.55,0,1,.45,1,1v8.01h-9.01v-8.01c0-.55,.45-1,1-1Z" transform="translate(59.61 137.43) rotate(-135)"/>
  <path d="M37.23,52.07h8.01c.55,0,1,.45,1,1v7.01c0,.55-.45,1-1,1h-8.01v-9.01h0Z" transform="translate(52.23 -12.94) rotate(45)"/>
  <path d="M67.5,51.87h8.01v9.01h-8.01c-.55,0-1-.45-1-1v-7.01c0-.55,.45-1,1-1Z" transform="translate(81.36 146.44) rotate(-135)"/>
  <path d="M24.49,52.07h9.01v8.01c0,.55-.45,1-1,1h-7.01c-.55,0-1-.45-1-1v-8.01h0Z" transform="translate(48.5 -3.93) rotate(45)"/>
  <g>
    <polyline points="81.53 13.96 59.01 13.96 50 13.96"/>
    <path d="M81.53,18.47h-31.53c-2.49,0-4.5-2.01-4.5-4.5s2.01-4.5,4.5-4.5h31.53c2.49,0,4.5,2.01,4.5,4.5s-2.01,4.5-4.5,4.5Z"/>
  </g>
  <g>
    <polyline points="65.49 91.63 43.36 91.63 34.52 91.63"/>
    <path d="M65.49,96.05h-30.97c-2.45,0-4.42-1.98-4.42-4.42s1.98-4.42,4.42-4.42h30.97c2.45,0,4.42,1.98,4.42,4.42s-1.98,4.42-4.42,4.42Z"/>
  </g>
  <g>
    <polyline points="18.47 13.96 40.99 13.96 50 13.96"/>
    <path d="M50,18.47H18.47c-2.49,0-4.5-2.01-4.5-4.5s2.01-4.5,4.5-4.5h31.53c2.49,0,4.5,2.01,4.5,4.5s-2.01,4.5-4.5,4.5Z"/>
  </g>
</svg>