<?xml version="1.0" encoding="UTF-8"?>
<svg id="Layer_1" data-name="Layer 1" xmlns="http://www.w3.org/2000/svg" viewBox="0 0 100 100">
  <defs>
    <style>
      .cls-1 {
        fill: #ff5c35;
      }
    </style>
  </defs>
  <path d="M83.67,47.95c-1.23,0-2.46-.47-3.4-1.41-1.88-1.88-1.88-4.92,0-6.8l6.22-6.22h6.8c2.66,0,4.81,2.15,4.81,4.81s-2.15,4.81-4.81,4.81h-2.82l-3.4,3.4c-.94,.94-2.17,1.41-3.4,1.41Z"/>
  <path d="M16.33,47.95c-1.23,0-2.46-.47-3.4-1.41l-3.4-3.4h-2.82c-2.66,0-4.81-2.15-4.81-4.81s2.15-4.81,4.81-4.81h6.8l6.22,6.22c1.88,1.88,1.88,4.92,0,6.8-.94,.94-2.17,1.41-3.4,1.41Z"/>
  <path d="M16.33,96.05c-2.66,0-4.81-2.15-4.81-4.81v-14.43c0-2.66,2.15-4.81,4.81-4.81s4.81,2.15,4.81,4.81v14.43c0,2.66-2.15,4.81-4.81,4.81Z"/>
  <path d="M83.67,96.05c-2.66,0-4.81-2.15-4.81-4.81v-14.43c0-2.66,2.15-4.81,4.81-4.81s4.81,2.15,4.81,4.81v14.43c0,2.66-2.15,4.81-4.81,4.81Z"/>
  <path class="cls-1" d="M82.9,30.83l-6.69-13.39c-2.46-4.92-7.41-7.98-12.91-7.98h-26.59c-5.5,0-10.45,3.06-12.91,7.98l-6.69,13.39c-3.66,7.31-5.59,15.49-5.59,23.66v27.13H88.49v-27.13c0-8.17-1.93-16.36-5.59-23.66Zm-57.19,4.3l6.69-13.39c.82-1.64,2.47-2.66,4.3-2.66h26.59c1.84,0,3.49,1.02,4.3,2.66l6.69,13.39c1.34,2.69,2.36,5.53,3.12,8.44-1.08-.26-2.2-.43-3.36-.43H25.95c-1.16,0-2.27,.17-3.36,.43,.76-2.91,1.77-5.75,3.12-8.44Z"/>
  <rect x="25.95" y="57.57" width="9.62" height="9.62" rx="1" ry="1"/>
  <rect x="64.43" y="57.57" width="9.62" height="9.62" rx="1" ry="1"/>
</svg>