<?xml version="1.0" encoding="UTF-8"?>
<svg id="Layer_1" data-name="Layer 1" xmlns="http://www.w3.org/2000/svg" viewBox="0 0 100 100">
  <defs>
    <style>
      .cls-1 {
        fill: #ff5b29;
      }
    </style>
  </defs>
  <g>
    <path class="cls-1" d="M10.03,14.11h31.74c.55,0,1,.45,1,1V91.23H10.03c-.55,0-1-.45-1-1V15.11c0-.55,.45-1,1-1Z"/>
    <path class="cls-1" d="M47.59,96.05H13.85c-5.31,0-9.64-4.32-9.64-9.64V18.93c0-5.32,4.33-9.64,9.64-9.64h24.1c5.31,0,9.64,4.32,9.64,9.64V96.05ZM13.85,18.93V86.41h24.1V18.93H13.85Z"/>
  </g>
  <rect x="4.21" y="33.39" width="43.38" height="9.64"/>
  <path d="M37.95,62.31c-2.66,0-4.82-2.16-4.82-4.82v-4.82c0-2.66,2.16-4.82,4.82-4.82s4.82,2.16,4.82,4.82v4.82c0,2.66-2.16,4.82-4.82,4.82Z"/>
  <g>
    <polygon class="cls-1" points="66.87 18.93 76.51 18.93 76.51 26.16 81.33 38.21 62.05 38.21 66.87 26.16 66.87 18.93"/>
    <path class="cls-1" d="M88.45,43.03H54.93l7.12-17.8V14.11h19.28v11.12l7.12,17.8Zm-19.28-9.64h5.05l-2.52-6.3-2.52,6.3Z"/>
  </g>
  <path d="M81.33,18.93h-19.28c-2.66,0-4.82-2.16-4.82-4.82s2.16-4.82,4.82-4.82h19.28c2.66,0,4.82,2.16,4.82,4.82s-2.16,4.82-4.82,4.82Z"/>
  <path d="M95.79,96.05H47.59V52.67h48.2v43.38Zm-38.56-9.64h28.92v-24.1h-28.92v24.1Z"/>
  <path d="M76.51,67.13h-9.64c-2.66,0-4.82-2.16-4.82-4.82s2.16-4.82,4.82-4.82h9.64c2.66,0,4.82,2.16,4.82,4.82s-2.16,4.82-4.82,4.82Z"/>
</svg>