<?xml version="1.0" encoding="UTF-8"?>
<svg id="Layer_1" data-name="Layer 1" xmlns="http://www.w3.org/2000/svg" viewBox="0 0 100 100">
  <defs>
    <style>
      .cls-1 {
        fill: #ff5c35;
      }
    </style>
  </defs>
  <rect x="39.71" y="29.91" width="37.42" height="9.62" transform="translate(-7.44 51.48) rotate(-45)"/>
  <circle cx="74.05" cy="19.08" r="9.62"/>
  <g>
    <path class="cls-1" d="M21.14,43.13v19.24c0,15.94,12.92,28.86,28.86,28.86h0c15.94,0,28.86-12.92,28.86-28.86v-19.24"/>
    <path class="cls-1" d="M50,96.05c-18.57,0-33.67-15.11-33.67-33.67v-19.24h9.62v19.24c0,13.26,10.79,24.05,24.05,24.05s24.05-10.79,24.05-24.05v-19.24h9.62v19.24c0,18.57-15.11,33.67-33.67,33.67Z"/>
  </g>
  <rect x="44.83" y="60.46" width="10.35" height="10.35" rx="1.42" ry="1.42" transform="translate(-31.77 54.58) rotate(-45)"/>
  <path class="cls-1" d="M88.49,47.95H11.51c-2.66,0-4.81-2.15-4.81-4.81s2.15-4.81,4.81-4.81H88.49c2.66,0,4.81,2.15,4.81,4.81s-2.15,4.81-4.81,4.81Z"/>
</svg>