<?xml version="1.0" encoding="utf-8"?>
<!-- Generator: Adobe Illustrator 27.9.0, SVG Export Plug-In . SVG Version: 6.00 Build 0)  -->
<svg version="1.1" id="Layer_1" xmlns="http://www.w3.org/2000/svg" xmlns:xlink="http://www.w3.org/1999/xlink" x="0px" y="0px"
	 viewBox="0 0 53 24" style="enable-background:new 0 0 53 24;" xml:space="preserve">
<style type="text/css">
	.st0{fill:#0D7B3E;}
	.st1{fill:#C1C1C1;}
	.st2{fill:#DC1116;}
</style>
<g>
	<ellipse class="st0" cx="47.9" cy="22.4" rx="1.6" ry="1.6"/>
	<path class="st0" d="M49,8.8V14c0,0.6-0.6,1.2-1.2,1.2s-1.2-0.6-1.2-1.2V2.4h-4V14c0,2.9,2.3,5.2,5.1,5.2S53,16.8,53,14V8.8H49z"/>
	<path class="st1" d="M24.6,15c0.5,2.4,2.5,4.2,5.1,4.2c1.2,0,2.3-0.4,3.2-1.1c0.9,0.7,2,1.1,3.2,1.1c2.8,0,5.1-2.3,5.1-5.2V8.8h-4
		V14c0,0.6-0.6,1.2-1.2,1.2c-0.6,0-1.2-0.6-1.2-1.2V8.8h-4V14c0,0.6-0.6,1.2-1.2,1.2s-1.2-0.6-1.2-1.2V8.8h-4v2.3L24.6,15z"/>
	<g>
		<g>
			<g>
				<g>
					<path d="M24.4,11c-0.2-0.5-0.2-0.6-0.4-0.9c-0.2-0.3-0.4-0.7-0.6-1C23,8.5,22.5,7.9,22,7.2c-0.1-0.1-0.8-0.9-0.7-1
						c0,0,1.9-2.7,1.9-2.7L20,1.2l-1,1.5L17.2,0L14,2.3l2.7,3.8l-2.5,3.5c-0.5,0.6-0.8,1.4-0.9,2.2c0-0.1,0.1,3,0.1,3
						c0.7,2.5,3,4.3,5.7,4.3c2.6,0,4.8-1.8,5.5-4.2C24.6,14.9,24.4,11,24.4,11z M19,15.2c-1.1,0-2-0.9-2-2c0-0.4,0.2-0.8,0.4-1.1
						L19,9.7l1.6,2.3c0.2,0.3,0.4,0.7,0.4,1.1C21,14.3,20.1,15.2,19,15.2z"/>
				</g>
			</g>
		</g>
	</g>
	<path class="st2" d="M13.3,11.8C12.6,9.5,10.4,8,7.9,8c-3.1,0-5.5,2.5-5.5,5.6c0,0.8,0.2,1.6,0.5,2.3c-1.7,1-2.8,2.8-2.8,4.9v1.6h4
		v-1.6c0-0.9,0.7-1.6,1.6-1.6h2.4c2.6,0,4.8-1.8,5.4-4.3C13.5,13.8,13.4,13.1,13.3,11.8z M7.9,15.2L7.9,15.2
		c-0.9-0.1-1.6-0.7-1.6-1.6C6.3,12.7,7,12,7.9,12s1.6,0.7,1.6,1.6C9.5,14.4,8.8,15.2,7.9,15.2z"/>
</g>
</svg>
