<?xml version="1.0" encoding="UTF-8"?>
<svg id="Layer_1" data-name="Layer 1" xmlns="http://www.w3.org/2000/svg" viewBox="0 0 100 100">
  <defs>
    <style>
      .cls-1 {
        fill: #ff5c35;
      }
    </style>
  </defs>
  <circle class="cls-1" cx="76.44" cy="68.51" r="21.15"/>
  <circle class="cls-1" cx="23.56" cy="68.51" r="21.15" transform="translate(-41.54 36.72) rotate(-45)"/>
  <path d="M76.44,73.8c-2.27,0-4.37-1.48-5.06-3.77l-14.73-49.11h-6.64c-2.92,0-5.29-2.37-5.29-5.29s2.37-5.29,5.29-5.29h14.51l17,56.65c.84,2.79-.75,5.74-3.55,6.58-.51,.15-1.02,.22-1.52,.22Z"/>
  <path d="M23.56,73.8c-2.92,0-5.29-2.37-5.29-5.29V31.49c0-2.92,2.37-5.29,5.29-5.29s5.29,2.37,5.29,5.29v37.02c0,2.92-2.37,5.29-5.29,5.29Z"/>
  <path d="M23.56,57.93c-2.14,0-4.15-1.31-4.95-3.43-1.03-2.74,.36-5.78,3.1-6.81l42.31-15.87c2.73-1.02,5.78,.36,6.81,3.09,1.03,2.74-.36,5.78-3.1,6.81l-42.31,15.87c-.61,.23-1.24,.34-1.86,.34Z"/>
  <path class="cls-1" d="M18.27,36.78h15.87c2.92,0,5.29-2.37,5.29-5.29s-2.37-5.29-5.29-5.29h-15.87c-2.92,0-5.29,2.37-5.29,5.29s2.37,5.29,5.29,5.29Z"/>
</svg>